# xmcd CD database file
#
# Track frame offsets:
#	150
#	8277
#	20432
#	26735
#	39012
#	44580
#	65465
#	75027
#	85425
#	105202
#	120060
#	130152
#	142467
#	152940
#	169532
#	182262
#	204635
#	214332
#	227002
#	236877
#	249502
#	265552
#	280302
#	295240
#	315905
#
# Disc length: 4425 seconds
#
# Revision: 0
# Processed by: cddbd v1.5.1PL0 Copyright (c) Steve Scherf et al.
# Submitted via: CDex 1.60beta1
#
DISCID=42114719
DTITLE=Finis Jhung - Scott Killian - New Ballet Music 5
DYEAR=0
DGENRE=Blues
TTITLE0=Relax and Stretch. 3/4, 8-8's
TTITLE1=Plies. 3/4, 8-8's
TTITLE2=Tendus Facing The Barre. 2/4, 8-8's
TTITLE3=Tendus In 1st With Stretches. 3/4, 16-8's
TTITLE4=Quick Tendus In 1st. 6/8, 16-8's
TTITLE5=Tendus In 5th With Balance. 3/4, 16-8's
TTITLE6=Quick Tendus In 5th. 3/4, 16-8's
TTITLE7=Quick Degages In 5th With Balance. 4/4, 16-8's
TTITLE8=Footwork, Stretching and Balance. 3/4, 16-8's
TTITLE9=Rond De Jambe. 3/4, 16-8's
TTITLE10=Fondu, Frappes, Petit Battements. 6/8, 32-8's
TTITLE11=Developpe, Fondu, Balance. 3/4, 8-8's
TTITLE12=Grand Battements. 3/4, 8-8's
TTITLE13=Center Tendu and Pirouette I. 3/4, 16-8's
TTITLE14=Center Tendu and Pirouette II. 6/8, 32-8's
TTITLE15=Adagio. 3/4, 16-8's
TTITLE16=Fondu Releves, Pirouettes I. 3/4, 16-8's
TTITLE17=Fondu Releves, Pirouettes II. 4/4, 16-8's
TTITLE18=Fondu Releves, Pirouetttes III. 6/8, 16-8's
TTITLE19=Changements, Petit Allegro. 2/4, 32-8's
TTITLE20=Petit Allegro I. 3/4, 32-8's
TTITLE21=Petit Allegro II. 2/4, 32-8's
TTITLE22=Petit Allegro III. 4/4, 32-8's
TTITLE23=Grand Allegro. 3/4, 34-8's
TTITLE24=Coda. 4/4, 32-8's
EXTD=YEAR: 0
EXTT0=
EXTT1=
EXTT2=
EXTT3=
EXTT4=
EXTT5=
EXTT6=
EXTT7=
EXTT8=
EXTT9=
EXTT10=
EXTT11=
EXTT12=
EXTT13=
EXTT14=
EXTT15=
EXTT16=
EXTT17=
EXTT18=
EXTT19=
EXTT20=
EXTT21=
EXTT22=
EXTT23=
EXTT24=
PLAYORDER=
